<?xml version="1.0" standalone="no"?>
<!DOCTYPE svg PUBLIC "-//W3C//DTD SVG 20010904//EN"
 "http://www.w3.org/TR/2001/REC-SVG-20010904/DTD/svg10.dtd">
<svg version="1.0" xmlns="http://www.w3.org/2000/svg"
 width="512.000000pt" height="512.000000pt" viewBox="0 0 512.000000 512.000000"
 preserveAspectRatio="xMidYMid meet">

<g transform="translate(0.000000,512.000000) scale(0.100000,-0.100000)"
fill="#000000" stroke="none">
<path d="M2840 4850 c-11 -11 -20 -27 -20 -35 0 -9 29 -66 64 -128 36 -61 64
-113 62 -114 -1 -2 -50 4 -107 13 -141 22 -410 22 -559 0 -867 -125 -1551
-770 -1724 -1628 -89 -438 -31 -888 167 -1293 181 -370 464 -675 812 -874 96
-55 132 -62 159 -32 28 31 16 63 -37 96 -366 232 -517 368 -692 630 -291 434
-393 949 -290 1460 180 889 965 1535 1870 1539 143 0 355 -19 355 -33 0 -3
-43 -30 -96 -60 -52 -30 -103 -65 -112 -79 -14 -22 -14 -27 -1 -51 27 -48 56
-40 222 55 193 110 217 128 217 160 0 23 -173 336 -208 377 -20 23 -57 22 -82
-3z"/>
<path d="M3452 4364 c-26 -18 -30 -65 -6 -89 9 -8 35 -25 58 -37 143 -72 369
-255 497 -401 462 -528 605 -1247 379 -1902 -237 -685 -829 -1175 -1550 -1281
-129 -19 -381 -21 -512 -4 -54 7 -98 15 -98 19 0 3 43 30 96 60 52 30 103 65
112 79 14 22 14 27 1 51 -27 47 -56 40 -222 -55 -194 -111 -217 -128 -217
-162 1 -31 195 -369 222 -386 25 -15 71 4 82 36 8 22 0 41 -57 139 -36 62 -65
115 -63 116 1 2 50 -4 107 -13 141 -22 419 -21 564 0 778 118 1409 645 1654
1381 171 515 133 1065 -108 1550 -166 335 -398 600 -701 800 -91 60 -190 115
-207 115 -5 0 -19 -7 -31 -16z"/>
<path d="M1893 4156 c-256 -103 -531 -315 -706 -543 -112 -147 -212 -335 -268
-505 -31 -93 -31 -98 -15 -123 17 -25 57 -34 83 -17 6 4 30 58 52 120 145 406
432 729 811 913 80 39 152 74 160 78 18 10 25 67 10 86 -20 25 -49 23 -127 -9z"/>
<path d="M3119 4176 c-19 -9 -24 -19 -24 -50 0 -44 -9 -37 139 -106 399 -184
698 -513 847 -932 22 -62 46 -116 52 -120 26 -17 66 -8 83 17 16 25 16 30 -15
123 -134 410 -441 771 -829 979 -143 77 -222 105 -253 89z"/>
<path d="M2026 3476 c-280 -162 -513 -300 -517 -308 -5 -7 -9 -281 -9 -609 0
-461 3 -599 13 -611 21 -26 1022 -598 1047 -598 25 0 1026 572 1048 598 9 12
12 150 12 612 0 462 -3 600 -12 612 -7 8 -114 74 -238 145 -124 71 -351 202
-506 291 -155 90 -291 162 -305 162 -13 0 -251 -131 -533 -294z m979 -87 l435
-252 -136 -79 -137 -79 -171 99 c-505 290 -704 407 -700 412 12 12 250 148
262 149 7 1 208 -112 447 -250z m-347 -254 c210 -121 382 -222 382 -225 0 -3
-37 -26 -81 -51 l-81 -46 -87 50 c-343 197 -685 395 -734 424 l-58 35 83 48
83 48 56 -32 c30 -17 227 -130 437 -251z m-338 -138 c234 -135 425 -249 424
-254 -1 -4 -42 -32 -93 -61 l-91 -53 -423 244 c-232 134 -430 248 -440 254
-16 8 -4 18 80 66 54 31 103 55 108 53 6 -2 201 -114 435 -249z m-252 -222
l432 -249 0 -508 0 -508 -48 27 c-27 16 -225 129 -440 253 l-391 225 -1 508
c0 280 4 507 8 505 5 -1 203 -115 440 -253z m1432 -252 l-1 -508 -391 -225
c-215 -124 -413 -237 -440 -253 l-48 -27 0 508 0 508 98 56 97 56 3 -181 c3
-194 9 -217 56 -217 33 0 329 174 343 201 9 17 13 86 13 231 l0 207 133 75
c72 42 133 76 135 76 1 0 2 -228 2 -507z m-390 128 l0 -149 -80 -46 c-43 -25
-82 -46 -85 -46 -3 0 -5 67 -5 150 l0 149 78 45 c42 25 80 46 85 46 4 0 7 -67
7 -149z"/>
<path d="M2820 2057 c-90 -53 -105 -66 -108 -90 -4 -34 22 -67 52 -67 20 0
186 89 219 118 36 32 9 102 -39 102 -10 0 -66 -28 -124 -63z"/>
<path d="M2834 1857 c-50 -29 -99 -58 -108 -66 -26 -22 -17 -72 17 -91 26 -14
31 -13 90 19 137 75 167 99 167 130 0 35 -23 61 -53 61 -12 0 -63 -24 -113
-53z"/>
<path d="M1023 1900 c-55 -22 -38 -81 71 -257 165 -266 408 -486 693 -629 182
-91 243 -96 243 -19 0 40 -6 45 -101 84 -328 136 -639 424 -799 740 -16 33
-40 67 -52 75 -25 18 -25 18 -55 6z"/>
<path d="M4042 1894 c-12 -8 -36 -42 -52 -75 -104 -205 -277 -407 -480 -559
-82 -61 -162 -105 -390 -214 -18 -8 -26 -21 -28 -44 -8 -84 55 -81 240 12 324
162 581 412 757 736 22 41 41 84 41 96 0 46 -51 74 -88 48z"/>
</g>
</svg>
