<?xml version="1.0" standalone="no"?>
<!DOCTYPE svg PUBLIC "-//W3C//DTD SVG 20010904//EN"
 "http://www.w3.org/TR/2001/REC-SVG-20010904/DTD/svg10.dtd">
<svg version="1.0" xmlns="http://www.w3.org/2000/svg"
 width="947.000000pt" height="533.000000pt" viewBox="0 0 947.000000 533.000000"
 preserveAspectRatio="xMidYMid meet">
<metadata>
Created by potrace 1.16, written by Peter Selinger 2001-2019
</metadata>
<g transform="translate(0.000000,533.000000) scale(0.100000,-0.100000)"
fill="#000000" stroke="none">
<path d="M6867 5183 c-3 -5 -8 -250 -12 -545 l-8 -538 -51 53 c-106 107 -267
162 -451 154 -244 -10 -425 -128 -536 -349 -64 -127 -82 -209 -82 -373 0 -240
56 -388 203 -536 89 -91 180 -145 280 -168 80 -19 269 -14 334 9 93 32 175 81
237 142 l59 58 0 -94 0 -93 137 -6 c75 -4 189 -7 253 -7 l117 0 6 488 c4 268
10 782 14 1143 l6 656 -183 6 c-237 9 -318 9 -323 0z m-196 -1316 c175 -90
224 -321 101 -482 -101 -133 -312 -153 -438 -42 -66 58 -96 124 -102 222 -5
100 21 177 82 243 59 65 123 92 218 92 67 0 84 -4 139 -33z"/>
<path d="M2206 5083 c-9 -91 -28 -2115 -20 -2122 3 -3 236 -6 517 -6 457 0
519 2 577 18 151 41 293 139 366 254 19 28 46 87 61 130 24 70 27 91 27 213
-1 114 -4 145 -23 200 -60 174 -165 272 -355 334 -14 5 -5 13 42 37 76 38 169
135 211 221 42 85 59 213 44 326 -22 167 -109 286 -266 361 -142 69 -211 80
-552 91 -165 5 -373 9 -461 10 l-162 0 -6 -67z m849 -384 c28 -14 60 -41 73
-60 21 -31 23 -43 20 -130 -3 -84 -6 -100 -30 -137 -15 -22 -49 -53 -75 -69
-46 -27 -55 -28 -195 -32 l-148 -3 0 200 c0 110 3 214 6 232 l7 32 146 -4
c134 -3 151 -5 196 -29z m-10 -854 c28 -9 65 -28 83 -42 70 -52 99 -170 68
-276 -38 -131 -131 -177 -354 -177 -59 0 -117 3 -129 6 l-23 6 0 256 0 255
153 -5 c107 -4 167 -11 202 -23z"/>
<path d="M4494 4356 c-237 -63 -431 -201 -557 -398 -105 -164 -145 -292 -154
-493 -10 -244 43 -442 167 -625 47 -69 182 -198 258 -248 l57 -37 -85 -7
c-162 -15 -333 -78 -465 -173 -69 -49 -177 -159 -222 -225 -199 -292 -226
-686 -69 -1015 44 -93 128 -215 147 -215 6 0 56 93 112 207 113 232 111 221
93 418 -13 147 35 310 126 423 47 58 141 127 211 153 56 21 59 24 91 93 19 39
97 203 175 365 77 162 141 300 141 307 0 8 -19 26 -42 40 -94 59 -176 169
-219 291 -30 84 -37 266 -14 353 38 147 130 275 249 345 122 71 299 84 427 30
35 -15 72 -28 81 -28 14 -2 36 37 94 157 99 210 99 207 37 234 -121 52 -190
64 -373 68 -160 4 -183 2 -266 -20z"/>
<path d="M7513 4233 c3 -16 126 -324 272 -685 l266 -657 -196 -418 c-108 -230
-199 -429 -202 -444 -5 -26 -5 -26 69 -32 40 -4 152 -9 249 -13 l176 -6 27 58
c16 33 45 97 66 144 21 47 245 528 499 1069 254 541 460 985 458 987 -2 2
-116 5 -252 7 l-248 2 -186 -453 c-102 -249 -187 -447 -190 -440 -29 95 -306
886 -313 896 -8 9 -71 12 -255 12 l-245 0 5 -27z"/>
<path d="M5364 3798 l-111 -233 -6 -135 c-3 -83 -12 -156 -22 -190 -43 -137
-121 -243 -239 -319 l-61 -40 -89 -188 c-50 -103 -134 -279 -188 -391 -54
-112 -98 -207 -98 -211 0 -5 33 -42 73 -82 116 -117 167 -243 167 -415 0 -259
-129 -463 -343 -543 -78 -29 -237 -30 -327 -2 l-62 19 -84 -176 c-47 -97 -83
-183 -82 -191 4 -18 86 -46 197 -67 130 -25 356 -15 474 20 350 104 598 383
663 746 31 174 10 399 -51 555 -69 174 -210 350 -358 446 l-68 44 83 8 c299
27 545 169 702 405 175 264 213 627 96 930 -36 95 -119 236 -140 240 -11 2
-47 -63 -126 -230z"/>
<path d="M1225 3079 c-182 -20 -326 -84 -449 -200 -128 -121 -176 -231 -176
-409 0 -207 90 -371 273 -498 40 -28 184 -105 318 -170 322 -157 369 -198 369
-319 0 -69 -21 -109 -80 -152 -87 -63 -270 -68 -438 -12 -107 35 -227 89 -293
131 -25 17 -50 30 -56 30 -9 0 -213 -323 -252 -397 -10 -20 -6 -25 48 -58 133
-80 304 -147 461 -180 177 -38 468 -35 625 4 256 66 450 241 500 453 19 81 19
235 0 316 -32 135 -124 272 -242 361 -69 52 -249 146 -425 221 -135 58 -217
109 -257 161 -31 40 -33 48 -29 101 3 47 10 64 33 88 110 114 405 91 610 -49
17 -12 38 -21 47 -21 11 0 58 67 137 193 l120 192 -27 23 c-40 33 -175 97
-277 131 -157 52 -380 77 -540 60z"/>
<path d="M2520 2673 c0 -55 -3 -182 -7 -281 l-6 -182 -114 0 -113 0 0 -210 0
-210 69 0 c37 0 89 -3 114 -6 l46 -7 3 -341 3 -341 27 -57 c50 -107 145 -183
277 -222 69 -20 252 -21 353 -2 76 15 238 72 238 84 -1 4 -38 86 -84 182 -54
114 -88 174 -97 173 -8 -1 -35 -9 -61 -18 -88 -31 -137 9 -149 123 -5 37 -8
147 -8 244 l-1 177 153 3 152 3 3 208 2 207 -151 0 -151 0 7 280 8 280 -69 0
c-38 0 -153 3 -256 7 l-188 6 0 -100z"/>
<path d="M6137 2199 c-81 -12 -179 -63 -249 -129 l-58 -56 0 83 0 83 -260 0
-260 0 0 -368 c0 -203 -3 -510 -7 -684 l-6 -315 254 -6 c139 -3 254 -5 255 -4
1 1 6 173 11 382 9 352 12 384 31 428 52 117 122 168 241 175 91 5 141 -7 205
-49 26 -17 49 -29 52 -27 10 11 194 391 194 402 0 22 -131 75 -211 86 -85 11
-112 11 -192 -1z"/>
<path d="M6545 2157 c-4 -8 111 -306 264 -685 149 -368 271 -672 271 -675 0
-3 -70 -154 -155 -336 -85 -182 -155 -335 -155 -339 0 -10 201 -22 377 -22
l123 0 30 59 c75 149 700 1484 700 1495 0 16 -123 26 -324 26 l-142 0 -72
-177 c-40 -98 -80 -195 -90 -216 l-17 -38 -154 451 c-85 248 -157 452 -160
455 -4 2 -116 7 -249 11 -214 6 -242 5 -247 -9z"/>
</g>
</svg>
