<?xml version="1.0" standalone="no"?>
<!DOCTYPE svg PUBLIC "-//W3C//DTD SVG 20010904//EN"
 "http://www.w3.org/TR/2001/REC-SVG-20010904/DTD/svg10.dtd">
<svg version="1.0" xmlns="http://www.w3.org/2000/svg"
 width="512.000000pt" height="512.000000pt" viewBox="0 0 512.000000 512.000000"
 preserveAspectRatio="xMidYMid meet">

<g transform="translate(0.000000,512.000000) scale(0.100000,-0.100000)"
fill="#000000" stroke="none">
<path d="M3620 4841 c-263 -58 -491 -212 -640 -431 -40 -59 -44 -62 -74 -56
-186 38 -454 41 -651 7 -364 -63 -703 -234 -964 -485 -62 -60 -200 -219 -219
-252 -8 -14 -17 -11 -78 30 -77 52 -100 56 -114 24 -13 -33 -62 -437 -55 -459
4 -12 16 -19 31 -19 24 0 392 203 406 224 19 27 5 48 -62 92 -55 37 -68 50
-61 63 25 45 181 217 258 285 389 342 894 494 1403 425 41 -5 80 -12 87 -14 8
-3 2 -27 -17 -77 -47 -122 -63 -217 -63 -373 1 -117 5 -156 27 -240 48 -185
142 -349 272 -477 99 -97 165 -144 281 -200 151 -73 267 -100 433 -101 150 -1
222 10 349 54 47 16 90 30 96 32 34 8 52 -437 24 -598 -17 -94 -15 -112 14
-121 15 -5 26 0 38 14 43 54 59 463 25 655 -10 54 -16 100 -14 101 273 167
450 425 498 728 18 110 8 321 -19 423 -54 199 -191 409 -351 538 -100 80 -267
167 -385 198 -116 31 -357 36 -475 10z m473 -95 c159 -48 276 -116 396 -230
182 -175 278 -385 288 -634 9 -187 -17 -313 -98 -477 -104 -213 -322 -401
-549 -473 -205 -65 -428 -62 -618 8 -416 155 -674 570 -622 1000 53 430 360
750 800 834 14 2 90 3 170 1 122 -2 159 -7 233 -29z m-3020 -1241 c42 -27 77
-52 77 -55 -1 -5 -233 -139 -237 -136 -1 1 5 63 14 139 l17 136 27 -17 c14 -9
61 -39 102 -67z"/>
<path d="M3660 4666 c-266 -59 -491 -239 -601 -481 -15 -35 -38 -101 -51 -147
-30 -114 -30 -298 1 -413 28 -108 98 -246 165 -327 401 -484 1157 -392 1425
172 58 121 73 186 78 335 4 109 2 144 -16 218 -61 259 -236 472 -476 583 -113
52 -220 74 -355 73 -63 -1 -140 -7 -170 -13z m356 -86 c489 -125 727 -655 497
-1104 -38 -73 -64 -108 -138 -181 -102 -102 -184 -154 -300 -191 -163 -52
-324 -53 -477 -3 -413 135 -634 580 -490 988 37 103 82 177 160 262 154 166
335 247 563 248 75 1 128 -5 185 -19z"/>
<path d="M3806 4424 c-10 -9 -16 -33 -16 -57 0 -41 -1 -43 -47 -59 -151 -54
-219 -228 -145 -369 45 -87 150 -149 249 -149 49 0 109 -35 139 -79 111 -168
-89 -368 -257 -257 -43 29 -79 90 -79 135 0 30 -22 61 -44 61 -42 0 -48 -79
-12 -156 27 -59 92 -118 150 -137 39 -13 41 -16 46 -60 7 -55 19 -70 51 -65
21 3 25 10 29 57 4 48 8 55 30 61 146 39 233 196 186 337 -32 97 -138 183
-226 183 -56 0 -108 19 -147 53 -79 70 -86 185 -15 260 39 42 75 57 131 57
106 0 171 -55 189 -162 8 -48 33 -69 60 -52 24 16 21 98 -6 151 -27 52 -102
118 -155 136 -40 13 -42 16 -45 58 -5 66 -32 88 -66 53z"/>
<path d="M552 2868 c-8 -8 -12 -54 -12 -140 l0 -128 -70 0 c-101 0 -172 -40
-199 -113 -8 -19 -11 -355 -11 -1064 l0 -1035 22 -40 c13 -22 41 -51 64 -64
l41 -24 1322 0 c1297 0 1323 0 1361 20 85 44 100 95 100 356 l0 200 83 33
c228 92 445 239 623 423 68 70 155 173 173 205 7 13 20 8 77 -31 77 -52 100
-56 114 -23 13 32 62 436 55 458 -4 12 -16 19 -31 19 -24 0 -392 -203 -406
-224 -19 -27 -5 -48 62 -92 41 -28 67 -51 63 -58 -27 -46 -113 -147 -198 -231
-150 -149 -339 -276 -532 -359 l-83 -35 0 752 c0 494 -4 765 -11 790 -13 47
-63 106 -106 123 -18 8 -64 14 -102 14 l-70 0 -3 138 -3 137 -94 3 c-60 2 -98
-1 -107 -9 -11 -9 -14 -42 -14 -140 l0 -129 -100 0 -100 0 0 129 c0 98 -3 131
-14 140 -9 8 -47 11 -107 9 l-94 -3 -3 -137 -3 -138 -104 0 -104 0 -3 138 -3
137 -94 3 c-60 2 -98 -1 -107 -9 -11 -9 -14 -42 -14 -140 l0 -129 -100 0 -100
0 0 129 c0 98 -3 131 -14 140 -9 8 -47 11 -107 9 l-94 -3 -3 -137 -3 -138 -99
0 -100 0 0 121 c0 66 -5 129 -10 140 -9 17 -22 19 -105 19 -83 0 -96 -2 -105
-19 -5 -11 -10 -74 -10 -140 l0 -121 -100 0 -100 0 0 128 c0 86 -4 132 -12
140 -16 16 -180 16 -196 0z m128 -238 l0 -170 -30 0 -30 0 0 170 0 170 30 0
30 0 0 -170z m420 0 l0 -170 -24 0 c-22 0 -23 4 -29 83 -4 45 -7 121 -7 170
l0 87 30 0 30 0 0 -170z m430 0 l0 -170 -30 0 -30 0 0 170 0 170 30 0 30 0 0
-170z m420 0 l0 -170 -30 0 -30 0 0 170 0 170 30 0 30 0 0 -170z m430 0 l0
-170 -30 0 -30 0 0 170 0 170 30 0 30 0 0 -170z m420 0 l0 -170 -30 0 -30 0 0
170 0 170 30 0 30 0 0 -170z m-2258 -177 l3 -68 105 0 105 0 3 68 3 67 99 0
100 0 0 -58 c0 -32 5 -63 12 -70 8 -8 46 -12 105 -12 107 0 113 5 113 89 l0
51 100 0 99 0 3 -67 3 -68 94 -3 c60 -2 98 1 107 9 9 7 14 32 14 70 l0 59 100
0 100 0 0 -58 c0 -32 5 -63 12 -70 8 -8 46 -12 105 -12 107 0 113 5 113 89 l0
51 95 0 95 0 0 -44 c0 -25 4 -56 10 -70 9 -25 12 -26 103 -26 59 0 97 4 105
12 7 7 12 38 12 70 l0 58 100 0 100 0 0 -58 c0 -32 5 -63 12 -70 8 -8 46 -12
105 -12 91 0 94 1 103 26 6 14 10 45 10 70 l0 44 58 0 c71 0 102 -15 125 -60
16 -33 17 -98 15 -1048 l-3 -1014 -33 -29 -32 -29 -1311 0 -1311 0 -29 29 -29
29 0 1027 c0 682 3 1033 10 1045 17 32 61 49 127 50 l62 0 3 -67z m3650 -786
l-17 -137 -102 68 c-57 37 -103 69 -103 72 0 5 233 138 237 135 1 0 -5 -63
-15 -138z"/>
<path d="M850 2073 c-62 -55 -48 -163 25 -197 26 -13 73 -16 229 -16 108 0
196 -3 196 -7 0 -3 -72 -103 -160 -220 -89 -118 -165 -226 -171 -240 -11 -30
-3 -77 17 -109 24 -36 64 -47 200 -53 124 -6 133 -8 168 -35 68 -51 93 -145
61 -223 -20 -48 -41 -71 -87 -94 -32 -17 -60 -19 -215 -19 -193 0 -238 -7
-272 -44 -32 -33 -39 -100 -16 -142 31 -57 59 -64 277 -64 106 0 213 5 237 11
216 50 368 272 333 487 -28 167 -142 294 -320 359 -22 8 -14 20 147 235 182
244 195 270 167 330 -32 68 -33 68 -430 68 l-356 0 -30 -27z m740 -73 c6 -11
8 -26 3 -33 -4 -6 -92 -125 -195 -263 -103 -138 -188 -258 -188 -266 0 -23 20
-35 74 -42 150 -19 275 -137 306 -290 31 -151 -56 -315 -203 -382 -61 -28 -66
-29 -265 -32 -217 -4 -232 -1 -232 44 0 38 34 44 233 44 171 0 185 2 232 24
209 99 206 390 -5 485 -37 17 -66 21 -157 21 -101 0 -115 2 -134 21 -11 11
-18 27 -15 34 3 8 91 128 195 268 105 139 191 260 191 268 0 36 -19 39 -270
39 -178 0 -249 3 -258 12 -13 13 -16 50 -5 61 3 4 158 7 344 7 329 0 339 -1
349 -20z"/>
<path d="M2055 2087 c-164 -55 -281 -192 -305 -357 -13 -86 -12 -656 0 -745
41 -289 364 -460 622 -329 60 30 141 103 175 158 62 97 66 123 71 476 5 377
-3 472 -47 567 -40 85 -121 165 -208 206 -60 28 -80 32 -168 34 -63 2 -115 -2
-140 -10z m275 -98 c70 -33 136 -99 169 -169 l26 -55 0 -410 0 -410 -29 -58
c-36 -71 -99 -130 -174 -165 -48 -23 -71 -27 -142 -27 -76 0 -93 4 -152 33
-81 40 -148 110 -179 190 -22 54 -23 73 -27 389 -4 362 3 443 44 524 41 82
122 150 214 180 14 5 63 7 110 6 67 -2 96 -8 140 -28z"/>
<path d="M2104 1930 c-61 -19 -126 -73 -158 -130 l-31 -55 -3 -369 c-3 -413
-1 -428 65 -506 104 -121 302 -121 406 1 65 76 68 100 65 511 -3 353 -4 364
-25 404 -29 54 -75 99 -126 126 -47 23 -145 33 -193 18z m151 -89 c49 -22 91
-69 105 -119 8 -25 10 -154 8 -387 -3 -347 -3 -350 -26 -388 -71 -114 -245
-117 -319 -5 l-28 42 -3 350 c-3 376 -1 402 45 457 54 64 143 85 218 50z"/>
</g>
</svg>
