<?xml version="1.0" standalone="no"?>
<!DOCTYPE svg PUBLIC "-//W3C//DTD SVG 20010904//EN"
 "http://www.w3.org/TR/2001/REC-SVG-20010904/DTD/svg10.dtd">
<svg version="1.0" xmlns="http://www.w3.org/2000/svg"
 width="1600.000000pt" height="1600.000000pt" viewBox="0 0 1600.000000 1600.000000"
 preserveAspectRatio="xMidYMid meet">

<g transform="translate(0.000000,1600.000000) scale(0.100000,-0.100000)"
fill="#000000" stroke="none">
<path d="M0 8000 l0 -8000 8000 0 8000 0 0 8000 0 8000 -8000 0 -8000 0 0
-8000z m8185 2154 c93 -16 269 -71 311 -99 18 -12 22 -20 15 -33 -5 -9 -53
-109 -106 -222 -53 -113 -99 -207 -100 -209 -2 -2 -31 11 -65 27 -133 67 -339
81 -477 34 -215 -75 -376 -263 -429 -504 -22 -99 -21 -272 1 -367 44 -189 159
-352 310 -441 22 -13 41 -24 43 -26 2 -1 -28 -64 -66 -140 -38 -77 -81 -164
-95 -194 -14 -30 -59 -127 -100 -215 -40 -88 -96 -210 -122 -271 l-49 -111
-67 -22 c-199 -64 -362 -252 -421 -484 -27 -108 -27 -289 0 -397 l18 -75 -56
-115 c-31 -63 -90 -187 -130 -275 -41 -88 -78 -164 -82 -170 -18 -19 -142 152
-203 280 -76 158 -105 288 -112 510 -6 203 5 291 58 449 143 428 530 744 964
788 55 5 115 12 134 15 l33 4 -67 40 c-267 156 -457 425 -532 754 -24 109 -29
398 -8 510 46 246 146 443 315 618 278 290 660 410 1085 341z m804 -552 c111
-192 164 -395 163 -637 -2 -624 -411 -1106 -1010 -1189 -109 -16 -182 -20
-182 -12 0 2 42 91 93 198 178 369 163 344 224 379 69 38 178 147 222 223 75
126 121 329 106 469 l-6 62 106 220 c59 121 127 263 152 315 l45 95 24 -28
c13 -15 41 -58 63 -95z m-965 -1889 c284 -171 480 -464 541 -808 24 -132 22
-344 -4 -474 -27 -135 -43 -184 -101 -306 -158 -331 -452 -556 -825 -632 -191
-38 -499 -16 -670 48 l-55 20 14 32 c37 84 189 422 191 425 1 1 42 -9 90 -23
227 -66 458 -11 619 148 120 119 186 262 207 451 30 272 -83 552 -279 687
l-22 16 111 227 c61 124 114 226 117 226 2 0 32 -17 66 -37z"/>
</g>
</svg>
