<?xml version="1.0" standalone="no"?>
<!DOCTYPE svg PUBLIC "-//W3C//DTD SVG 20010904//EN"
 "http://www.w3.org/TR/2001/REC-SVG-20010904/DTD/svg10.dtd">
<svg version="1.0" xmlns="http://www.w3.org/2000/svg"
 width="621.000000pt" height="621.000000pt" viewBox="0 0 621.000000 621.000000"
 preserveAspectRatio="xMidYMid meet">

<g transform="translate(0.000000,621.000000) scale(0.100000,-0.100000)"
fill="#000000" stroke="none">
<path d="M3345 5893 c-144 -9 -332 -54 -472 -113 -433 -184 -733 -556 -839
-1040 -27 -121 -27 -496 -1 -620 40 -185 126 -394 220 -535 112 -167 280 -325
445 -416 39 -23 70 -45 66 -50 -3 -5 -42 -9 -88 -9 -173 0 -392 -57 -577 -150
-450 -225 -734 -652 -781 -1176 -32 -353 58 -710 250 -990 82 -119 109 -151
120 -139 5 6 81 162 171 348 l162 338 -18 77 c-25 108 -25 380 0 470 80 291
249 491 493 584 78 29 86 35 103 72 10 23 127 268 260 545 133 277 244 515
247 530 5 23 -3 32 -72 81 -174 124 -275 273 -336 498 -31 114 -31 351 0 475
56 225 198 420 383 530 200 118 508 125 721 17 33 -17 62 -29 64 -27 5 4 197
403 235 485 l28 63 -64 29 c-200 90 -478 137 -720 123z"/>
<path d="M4532 5270 c-27 -58 -106 -222 -175 -365 l-127 -261 0 -185 c0 -199
-10 -264 -64 -395 -67 -164 -195 -313 -342 -398 l-81 -47 -152 -315 c-83 -173
-151 -319 -151 -325 0 -12 42 -11 176 2 687 69 1193 574 1275 1269 24 212 -2
484 -67 680 -44 132 -141 315 -223 420 l-20 25 -49 -105z"/>
<path d="M3413 2933 c-6 -16 -63 -136 -127 -268 -63 -132 -115 -244 -115 -250
0 -5 27 -32 60 -58 126 -102 224 -253 274 -422 36 -122 46 -336 20 -470 -51
-272 -213 -494 -437 -600 -123 -58 -180 -68 -358 -62 -134 4 -165 8 -229 31
-41 14 -76 25 -78 23 -5 -5 -212 -434 -239 -495 l-23 -53 42 -19 c23 -10 96
-33 162 -51 114 -30 131 -32 350 -36 263 -6 351 5 521 62 221 73 387 176 550
339 169 169 275 344 347 572 54 173 70 282 69 479 -1 254 -38 437 -128 633
-92 202 -258 410 -429 539 -51 39 -203 133 -214 133 -4 0 -12 -12 -18 -27z"/>
</g>
</svg>
