<?xml version="1.0" standalone="no"?>
<!DOCTYPE svg PUBLIC "-//W3C//DTD SVG 20010904//EN"
 "http://www.w3.org/TR/2001/REC-SVG-20010904/DTD/svg10.dtd">
<svg version="1.0" xmlns="http://www.w3.org/2000/svg"
 width="512.000000pt" height="512.000000pt" viewBox="0 0 512.000000 512.000000"
 preserveAspectRatio="xMidYMid meet">

<g transform="translate(0.000000,512.000000) scale(0.100000,-0.100000)"
fill="#000000" stroke="none">
<path d="M3371 4566 c-317 -170 -396 -217 -402 -237 -4 -13 -33 -210 -64 -438
-56 -402 -57 -414 -39 -431 31 -30 675 -430 692 -430 20 0 781 406 804 428 13
13 29 107 72 418 31 221 56 417 56 437 l0 35 -344 216 c-190 119 -353 216
-363 215 -10 -1 -195 -96 -412 -213z m728 -96 c127 -80 231 -147 231 -150 0
-3 -37 -25 -83 -50 l-83 -44 -278 173 -278 173 88 48 88 48 41 -27 c23 -14
146 -91 274 -171z m-315 -130 c146 -91 266 -168 266 -171 0 -3 -22 -16 -49
-29 l-49 -23 -271 168 c-149 92 -271 170 -271 173 0 12 74 52 91 49 9 -1 136
-76 283 -167z m-208 -113 c295 -182 281 -162 162 -223 l-68 -34 -276 172 -277
172 84 42 c46 24 90 41 98 38 7 -2 132 -77 277 -167z m-239 -173 c147 -92 269
-168 271 -169 6 -5 -91 -690 -98 -698 -7 -8 -533 314 -545 333 -4 7 81 659 90
688 3 6 6 12 9 12 2 0 125 -75 273 -166z m1037 139 c-2 -16 -25 -171 -49 -347
-24 -175 -45 -319 -47 -321 -14 -12 -650 -347 -653 -343 -2 2 17 159 43 349
l47 344 83 43 82 43 -1 -28 c0 -15 -4 -52 -8 -81 -9 -61 6 -92 43 -92 20 0
236 106 254 125 3 3 13 60 23 127 10 68 22 124 26 125 4 2 40 21 78 42 39 22
73 40 77 40 4 1 5 -11 2 -26z m-289 -188 c-7 -55 -8 -56 -56 -80 l-49 -25 5
27 c2 16 7 44 10 64 4 29 12 39 48 56 23 11 43 19 45 18 2 -2 0 -29 -3 -60z"/>
<path d="M2066 4714 c-19 -18 -20 -38 -6 -65 10 -18 27 -19 518 -19 382 0 511
3 520 12 7 7 12 24 12 38 0 14 -5 31 -12 38 -9 9 -137 12 -514 12 -444 0 -504
-2 -518 -16z"/>
<path d="M1378 4395 c-9 -19 -8 -29 6 -50 l16 -25 684 0 c649 0 684 1 699 18
20 22 22 53 5 70 -9 9 -179 12 -705 12 l-693 0 -12 -25z"/>
<path d="M1802 4098 c-7 -7 -12 -24 -12 -38 0 -14 5 -31 12 -38 17 -17 879
-17 896 0 7 7 12 24 12 38 0 14 -5 31 -12 38 -17 17 -879 17 -896 0z"/>
<path d="M2218 3799 c-21 -12 -24 -59 -6 -77 17 -17 409 -17 426 0 7 7 12 24
12 38 0 14 -5 31 -12 38 -15 15 -394 16 -420 1z"/>
<path d="M1340 3480 c-31 -31 -25 -57 17 -79 33 -17 1329 -15 1363 2 30 15 38
58 15 81 -15 14 -82 16 -696 16 -666 0 -679 0 -699 -20z"/>
<path d="M1360 2819 c-43 -17 -90 -59 -109 -97 -10 -20 -26 -79 -36 -129 l-17
-93 -324 0 c-280 0 -325 -2 -338 -16 -21 -21 -20 -47 2 -67 16 -15 54 -17 331
-17 l312 0 -7 -37 c-4 -21 -41 -225 -83 -453 l-76 -415 -276 -5 c-294 -5 -309
-8 -309 -55 0 -12 8 -29 18 -38 16 -15 51 -17 280 -17 144 0 262 -3 262 -7 1
-5 -16 -104 -37 -221 -34 -193 -40 -212 -58 -212 -11 0 -34 -9 -52 -20 -37
-22 -50 -60 -59 -165 -6 -65 -4 -72 18 -92 23 -22 32 -23 233 -25 l209 -3 12
-47 c26 -101 84 -171 179 -214 50 -24 74 -28 145 -28 175 -1 338 93 422 241
l30 53 843 0 843 0 7 -37 c10 -58 64 -151 106 -184 119 -94 294 -101 452 -17
75 40 164 127 195 191 l23 47 260 0 c160 0 268 4 280 10 28 16 45 56 60 143
12 73 12 78 -8 104 -11 15 -33 32 -50 36 l-29 9 42 231 c50 268 54 339 23 400
-14 26 -104 122 -237 252 l-215 211 18 27 c42 65 -9 199 -94 244 -43 23 -50
23 -338 23 l-295 0 6 28 c32 159 57 321 52 346 -4 17 -16 45 -29 63 -45 67 43
63 -1324 62 -788 0 -1247 -4 -1263 -10z m2495 -103 c11 -8 18 -25 17 -42 -1
-24 -291 -1640 -307 -1711 l-5 -23 -759 0 -759 0 -26 44 c-72 123 -218 185
-371 157 -92 -17 -201 -75 -267 -143 l-58 -58 -150 0 c-139 0 -151 1 -148 17
3 15 18 19 83 23 90 7 109 15 153 64 44 50 69 185 40 214 -8 8 -48 12 -116 12
-94 0 -103 2 -99 18 3 9 8 34 12 55 l6 37 59 0 c52 0 62 3 75 24 12 18 13 30
6 50 -10 24 -15 26 -66 26 l-56 0 6 33 c3 17 41 223 84 457 l78 425 193 3
c122 1 198 7 207 13 16 14 17 61 1 77 -8 8 -66 12 -195 12 -209 0 -191 -11
-169 102 13 68 34 103 71 119 11 4 565 8 1231 8 1001 1 1213 -1 1229 -13z
m671 -519 c50 -58 55 -57 -306 -57 l-330 0 0 23 c0 12 3 32 6 45 l7 23 299 -3
300 -3 24 -28z m-16 -192 l34 -35 -70 0 c-80 0 -124 -21 -142 -66 -6 -16 -25
-104 -41 -196 -33 -182 -32 -200 15 -237 26 -20 35 -21 361 -21 l335 0 -5 -22
c-3 -13 -11 -53 -17 -90 l-12 -67 -116 -3 -117 -3 -14 -30 c-9 -18 -15 -61
-15 -106 -1 -63 3 -81 19 -99 28 -32 76 -50 135 -50 43 0 50 -3 50 -20 0 -19
-7 -20 -200 -20 l-200 0 -19 37 c-27 52 -97 118 -151 142 -149 66 -358 14
-492 -121 -56 -58 -56 -58 -117 -58 -42 0 -61 4 -61 13 0 14 189 1057 195
1075 3 9 74 12 308 12 l303 0 34 -35z m302 -295 l163 -159 -302 -1 c-167 0
-303 2 -303 3 0 9 52 284 56 300 5 15 19 17 114 17 l110 0 162 -160z m-3612
-556 c0 -8 -13 -29 -29 -45 -24 -24 -38 -29 -75 -29 -49 0 -51 3 -40 59 l7 31
68 0 c56 0 69 -3 69 -16z m3744 -16 c-10 -58 -11 -58 -67 -58 -64 0 -82 15
-72 60 7 30 7 30 76 30 l69 0 -6 -32z m-3119 -117 c87 -39 142 -139 132 -240
-18 -204 -237 -372 -432 -331 -153 32 -222 218 -141 379 46 90 144 173 236
202 49 15 163 9 205 -10z m2470 0 c50 -22 109 -86 125 -136 7 -23 10 -63 7
-102 -10 -127 -97 -246 -225 -306 -86 -40 -192 -44 -258 -9 -81 42 -124 115
-124 210 0 144 103 286 248 343 63 24 173 25 227 0z m-3039 -236 l-11 -45
-181 0 c-201 0 -184 -6 -169 63 l5 27 183 0 183 0 -10 -45z m2479 28 c-3 -10
-9 -30 -12 -45 l-5 -28 -829 0 -829 0 0 45 0 45 841 0 c797 0 841 -1 834 -17z
m1261 -14 c-3 -17 -6 -38 -6 -45 0 -12 -42 -14 -230 -14 l-230 0 0 45 0 45
236 0 237 0 -7 -31z"/>
<path d="M1432 2163 c-18 -15 -30 -66 -73 -303 -56 -311 -59 -337 -38 -351 24
-15 68 -10 77 9 5 9 20 72 32 140 l23 122 141 0 c155 0 186 9 186 55 0 45 -32
55 -176 55 l-131 0 16 90 15 90 144 0 c80 0 152 5 163 10 27 15 25 64 -3 84
-18 13 -54 16 -189 16 -144 0 -170 -2 -187 -17z"/>
<path d="M2606 2164 c-19 -19 -15 1 -76 -338 -28 -153 -48 -287 -44 -298 10
-31 47 -38 207 -38 168 0 200 8 205 51 6 51 -16 59 -164 59 -154 0 -143 -10
-120 110 l12 65 152 5 c96 3 155 9 163 17 18 18 14 65 -7 80 -13 9 -56 13
-151 13 -73 0 -133 3 -133 8 0 4 7 42 15 85 8 43 15 81 15 83 0 2 67 4 148 4
132 0 151 2 165 18 22 25 21 48 -3 72 -18 18 -33 20 -194 20 -145 0 -177 -3
-190 -16z"/>
<path d="M3196 2161 c-20 -22 -130 -603 -120 -634 10 -30 48 -37 207 -37 171
0 200 8 205 55 6 48 -15 55 -165 55 -103 0 -133 3 -133 13 0 16 19 125 26 150
5 15 21 17 150 17 131 0 146 2 164 20 11 11 20 27 20 35 0 8 -9 24 -20 35 -18
18 -33 20 -155 20 -74 0 -135 3 -135 8 0 4 7 44 16 90 l17 82 143 0 c131 0
146 2 164 20 11 11 20 27 20 35 0 8 -9 24 -20 35 -18 18 -33 20 -193 20 -158
0 -175 -2 -191 -19z"/>
<path d="M2007 2148 c-13 -20 -117 -565 -117 -610 0 -10 11 -25 25 -34 23 -15
27 -15 49 0 19 12 28 31 37 76 l12 60 68 0 68 0 36 -65 c44 -78 66 -93 101
-70 32 21 30 45 -7 116 -36 67 -39 56 44 145 34 37 40 51 54 132 l16 90 -49
89 -49 88 -137 3 c-133 2 -138 2 -151 -20z m248 -125 c23 -42 26 -55 20 -104
-6 -49 -13 -63 -62 -117 l-55 -62 -64 0 c-35 0 -64 1 -64 3 0 1 14 74 30 162
16 88 30 161 30 163 0 1 31 2 69 2 l69 0 27 -47z"/>
<path d="M1617 917 c-118 -38 -186 -189 -127 -285 24 -38 88 -71 141 -72 55 0
133 44 167 96 43 64 49 123 20 182 -36 72 -119 105 -201 79z m101 -109 c7 -7
12 -27 12 -46 0 -72 -107 -127 -147 -74 -22 28 -15 62 21 98 36 36 90 46 114
22z"/>
<path d="M4090 919 c-55 -17 -100 -57 -126 -113 -62 -132 2 -240 143 -241 81
0 135 36 176 115 60 117 6 228 -118 244 -22 3 -56 0 -75 -5z m98 -111 c17 -17
15 -70 -4 -97 -23 -32 -77 -53 -107 -42 -48 19 -39 97 15 135 27 19 79 21 96
4z"/>
<path d="M26 2724 c-19 -19 -20 -44 -3 -67 11 -16 46 -17 427 -15 l415 3 9 27
c8 22 6 32 -9 48 -18 19 -29 20 -421 20 -353 0 -405 -2 -418 -16z"/>
<path d="M87 2192 c-22 -24 -21 -55 1 -75 17 -15 58 -17 388 -17 318 0 373 2
392 16 27 18 29 55 4 77 -17 15 -59 17 -394 17 -350 0 -376 -1 -391 -18z"/>
<path d="M493 1880 c-32 -13 -35 -65 -5 -87 20 -16 493 -18 523 -3 13 8 19 21
19 46 0 28 -5 36 -26 44 -32 12 -481 12 -511 0z"/>
<path d="M182 1164 c-12 -8 -22 -26 -22 -39 0 -50 24 -55 285 -55 261 0 285 5
285 55 0 50 -24 55 -285 55 -202 0 -244 -3 -263 -16z"/>
</g>
</svg>
