<svg version="1.0" preserveAspectRatio="xMidYMid meet" viewBox="75 149.000246423994 234.75 44.249998938" zoomAndPan="magnify" xmlns:xlink="http://www.w3.org/1999/xlink" xmlns="http://www.w3.org/2000/svg" style="max-height: 500px" width="234.75" height="44.249998938"><defs><g/><clipPath id="d1137d75e3"><path clip-rule="nonzero" d="M 74 17 L 93 17 L 93 47.28125 L 74 47.28125 Z M 74 17"/></clipPath><clipPath id="c686cc0f48"><path clip-rule="nonzero" d="M 163 17 L 182 17 L 182 47.28125 L 163 47.28125 Z M 163 17"/></clipPath><clipPath id="40cdd2e0e8"><rect height="48" y="0" width="185" x="0"/></clipPath></defs><path fill-rule="nonzero" fill-opacity="1" d="M 92.132812 153.53125 C 91.367188 153.578125 90.367188 153.820312 89.625 154.132812 C 87.324219 155.109375 85.730469 157.085938 85.167969 159.660156 C 85.023438 160.300781 85.023438 162.292969 85.160156 162.953125 C 85.375 163.9375 85.832031 165.046875 86.328125 165.796875 C 86.925781 166.683594 87.816406 167.523438 88.695312 168.007812 C 88.902344 168.128906 89.066406 168.246094 89.046875 168.273438 C 89.03125 168.300781 88.824219 168.320312 88.578125 168.320312 C 87.660156 168.320312 86.496094 168.625 85.511719 169.117188 C 83.121094 170.3125 81.609375 172.582031 81.363281 175.367188 C 81.191406 177.242188 81.667969 179.140625 82.691406 180.628906 C 83.125 181.261719 83.269531 181.429688 83.328125 181.367188 C 83.355469 181.335938 83.757812 180.503906 84.234375 179.515625 L 85.097656 177.722656 L 85 177.3125 C 84.867188 176.738281 84.867188 175.292969 85 174.8125 C 85.425781 173.269531 86.324219 172.203125 87.621094 171.710938 C 88.035156 171.558594 88.078125 171.523438 88.167969 171.328125 C 88.222656 171.207031 88.84375 169.902344 89.550781 168.433594 C 90.257812 166.960938 90.847656 165.695312 90.863281 165.617188 C 90.890625 165.492188 90.847656 165.445312 90.480469 165.183594 C 89.554688 164.527344 89.019531 163.734375 88.695312 162.539062 C 88.53125 161.933594 88.53125 160.671875 88.695312 160.015625 C 88.992188 158.820312 89.746094 157.78125 90.730469 157.199219 C 91.792969 156.570312 93.429688 156.535156 94.5625 157.109375 C 94.738281 157.199219 94.890625 157.261719 94.902344 157.25 C 94.929688 157.230469 95.949219 155.109375 96.148438 154.675781 L 96.300781 154.339844 L 95.960938 154.183594 C 94.894531 153.707031 93.417969 153.457031 92.132812 153.53125 Z M 92.132812 153.53125" fill="#000000"/><path fill-rule="nonzero" fill-opacity="1" d="M 98.441406 156.84375 C 98.296875 157.152344 97.878906 158.023438 97.511719 158.78125 L 96.835938 160.167969 L 96.835938 161.152344 C 96.835938 162.210938 96.78125 162.554688 96.496094 163.25 C 96.140625 164.121094 95.460938 164.914062 94.679688 165.367188 L 94.246094 165.617188 L 93.441406 167.289062 C 93 168.207031 92.636719 168.984375 92.636719 169.015625 C 92.636719 169.082031 92.859375 169.074219 93.574219 169.007812 C 97.222656 168.640625 99.914062 165.957031 100.347656 162.261719 C 100.476562 161.136719 100.335938 159.691406 99.992188 158.648438 C 99.757812 157.949219 99.242188 156.976562 98.808594 156.417969 L 98.699219 156.285156 Z M 98.441406 156.84375" fill="#000000"/><path fill-rule="nonzero" fill-opacity="1" d="M 92.496094 169.261719 C 92.460938 169.347656 92.160156 169.984375 91.820312 170.683594 C 91.484375 171.386719 91.207031 171.980469 91.207031 172.015625 C 91.207031 172.039062 91.351562 172.183594 91.527344 172.320312 C 92.195312 172.863281 92.71875 173.667969 92.984375 174.566406 C 93.175781 175.210938 93.226562 176.351562 93.089844 177.0625 C 92.820312 178.507812 91.957031 179.6875 90.765625 180.25 C 90.113281 180.558594 89.8125 180.613281 88.863281 180.578125 C 88.152344 180.558594 87.988281 180.539062 87.648438 180.414062 C 87.429688 180.339844 87.242188 180.28125 87.234375 180.292969 C 87.207031 180.320312 86.105469 182.597656 85.964844 182.921875 L 85.839844 183.203125 L 86.0625 183.304688 C 86.1875 183.359375 86.574219 183.480469 86.925781 183.578125 C 87.53125 183.738281 87.621094 183.746094 88.785156 183.769531 C 90.183594 183.800781 90.648438 183.742188 91.554688 183.4375 C 92.726562 183.050781 93.609375 182.503906 94.476562 181.636719 C 95.375 180.738281 95.9375 179.808594 96.320312 178.597656 C 96.605469 177.679688 96.691406 177.097656 96.6875 176.050781 C 96.683594 174.703125 96.484375 173.730469 96.007812 172.6875 C 95.519531 171.613281 94.636719 170.511719 93.726562 169.824219 C 93.457031 169.617188 92.648438 169.117188 92.589844 169.117188 C 92.570312 169.117188 92.527344 169.179688 92.496094 169.261719 Z M 92.496094 169.261719" fill="#000000"/><g transform="matrix(1, 0, 0, 1, 108, 144)"><g clip-path="url(#40cdd2e0e8)"><g fill-opacity="1" fill="#000000"><g transform="translate(1.016895, 37.449798)"><g><path d="M 9.40625 -27.851562 L 9.40625 -11.183594 C 9.40625 -8.476562 10.378906 -7.121094 12.324219 -7.121094 C 13.15625 -7.121094 13.859375 -7.402344 14.4375 -7.96875 C 15.015625 -8.53125 15.304688 -9.214844 15.304688 -10.019531 C 15.304688 -10.847656 15.03125 -11.546875 14.488281 -12.109375 C 13.945312 -12.675781 13.277344 -12.957031 12.488281 -12.957031 C 11.929688 -12.957031 11.292969 -12.710938 10.570312 -12.222656 L 10.570312 -20.628906 C 11.46875 -20.710938 12.148438 -20.753906 12.609375 -20.753906 C 15.480469 -20.753906 17.941406 -19.71875 19.988281 -17.652344 C 22.035156 -15.582031 23.058594 -13.09375 23.058594 -10.183594 C 23.058594 -7.203125 22.015625 -4.691406 19.9375 -2.652344 C 17.855469 -0.613281 15.296875 0.40625 12.265625 0.40625 C 10.738281 0.40625 9.253906 0.0742188 7.804688 -0.589844 C 6.355469 -1.257812 5.164062 -2.15625 4.222656 -3.285156 C 2.589844 -5.246094 1.773438 -7.78125 1.773438 -10.898438 L 1.773438 -27.851562 Z M 9.40625 -27.851562"/></g></g></g><g fill-opacity="1" fill="#000000"><g transform="translate(25.195238, 37.449798)"><g><path d="M 11.875 -20.773438 C 14.761719 -20.773438 17.230469 -19.734375 19.292969 -17.660156 C 21.355469 -15.585938 22.386719 -13.101562 22.386719 -10.203125 C 22.386719 -7.265625 21.339844 -4.761719 19.253906 -2.695312 C 17.164062 -0.625 14.644531 0.40625 11.691406 0.40625 C 8.742188 0.40625 6.21875 -0.628906 4.121094 -2.703125 C 2.027344 -4.777344 0.980469 -7.277344 0.980469 -10.203125 C 0.980469 -13.183594 2.027344 -15.6875 4.121094 -17.722656 C 6.21875 -19.757812 8.800781 -20.773438 11.875 -20.773438 Z M 11.671875 -13.242188 C 10.855469 -13.242188 10.160156 -12.945312 9.589844 -12.355469 C 9.019531 -11.765625 8.734375 -11.039062 8.734375 -10.183594 C 8.734375 -9.339844 9.023438 -8.617188 9.601562 -8.019531 C 10.179688 -7.421875 10.871094 -7.121094 11.671875 -7.121094 C 12.488281 -7.121094 13.183594 -7.421875 13.761719 -8.019531 C 14.339844 -8.617188 14.628906 -9.339844 14.628906 -10.183594 C 14.628906 -11.039062 14.34375 -11.765625 13.773438 -12.355469 C 13.203125 -12.945312 12.5 -13.242188 11.671875 -13.242188 Z M 11.671875 -13.242188"/></g></g></g><g fill-opacity="1" fill="#000000"><g transform="translate(48.537032, 37.449798)"><g><path d="M 14.753906 -27.851562 L 22.386719 -27.851562 L 22.386719 -10.898438 C 22.386719 -7.78125 21.570312 -5.246094 19.9375 -3.285156 C 18.996094 -2.15625 17.804688 -1.257812 16.355469 -0.589844 C 14.90625 0.0742188 13.421875 0.40625 11.894531 0.40625 C 8.863281 0.40625 6.304688 -0.613281 4.222656 -2.652344 C 2.140625 -4.691406 1.101562 -7.195312 1.101562 -10.160156 C 1.101562 -13.03125 2.136719 -15.515625 4.203125 -17.609375 C 6.269531 -19.703125 8.71875 -20.753906 11.550781 -20.753906 C 12 -20.753906 12.679688 -20.710938 13.589844 -20.628906 L 13.589844 -12.222656 C 12.964844 -12.710938 12.339844 -12.957031 11.710938 -12.957031 C 10.921875 -12.957031 10.246094 -12.667969 9.683594 -12.089844 C 9.117188 -11.511719 8.835938 -10.816406 8.835938 -10 C 8.835938 -9.210938 9.128906 -8.53125 9.714844 -7.96875 C 10.296875 -7.402344 11 -7.121094 11.816406 -7.121094 C 13.773438 -7.121094 14.753906 -8.476562 14.753906 -11.183594 Z M 14.753906 -27.851562"/></g></g></g><g clip-path="url(#d1137d75e3)"><g fill-opacity="1" fill="#000000"><g transform="translate(72.715376, 37.449798)"><g><path d="M 4.855469 8.917969 L 4.855469 2.285156 C 5.890625 2.722656 6.796875 2.9375 7.570312 2.9375 C 10.046875 2.9375 11.652344 1.542969 12.386719 -1.246094 C 11.054688 -0.457031 9.746094 -0.0625 8.46875 -0.0625 C 6.578125 -0.0625 5.019531 -0.765625 3.796875 -2.171875 C 2.570312 -3.582031 1.957031 -5.375 1.957031 -7.550781 L 1.957031 -20.34375 L 9.589844 -20.34375 L 9.589844 -9.40625 C 9.589844 -8.195312 10.09375 -7.589844 11.101562 -7.589844 C 12.066406 -7.589844 12.550781 -8.257812 12.550781 -9.589844 L 12.550781 -20.34375 L 20.179688 -20.34375 L 20.179688 -2.183594 C 20.179688 1.203125 19.230469 3.9375 17.324219 6.019531 C 15.050781 8.496094 12.304688 9.734375 9.082031 9.734375 C 7.664062 9.734375 6.257812 9.460938 4.855469 8.917969 Z M 4.855469 8.917969"/></g></g></g></g><g fill-opacity="1" fill="#000000"><g transform="translate(95.118601, 37.449798)"><g><path d="M 14.976562 -20.058594 L 14.976562 -12.019531 C 13.902344 -12.019531 13.164062 -11.816406 12.761719 -11.417969 C 12.363281 -11.015625 12.105469 -10.222656 12 -9.039062 C 11.644531 -5.109375 10.121094 -2.332031 7.425781 -0.714844 C 6 0.128906 3.972656 0.550781 1.347656 0.550781 L 0.285156 0.550781 L 0.285156 -7.53125 L 0.632812 -7.53125 C 1.855469 -7.53125 2.730469 -7.785156 3.253906 -8.292969 C 3.777344 -8.804688 4.082031 -9.699219 4.164062 -10.976562 C 4.273438 -13.058594 4.464844 -14.523438 4.746094 -15.367188 C 5.023438 -16.207031 5.589844 -17.046875 6.449219 -17.875 C 7.945312 -19.332031 10.019531 -20.058594 12.671875 -20.058594 Z M 14.976562 -20.058594"/></g></g></g><g fill-opacity="1" fill="#000000"><g transform="translate(110.360139, 37.449798)"><g><path d="M 9.019531 -27.851562 L 9.019531 -20.058594 L 12.449219 -20.058594 L 12.449219 -12 L 9.019531 -12 C 9.019531 -10.378906 9.273438 -9.265625 9.785156 -8.652344 C 10.292969 -8.039062 11.230469 -7.734375 12.589844 -7.734375 L 12.589844 0.285156 C 12.195312 0.300781 11.902344 0.304688 11.710938 0.304688 C 9.984375 0.304688 8.355469 -0.09375 6.824219 -0.898438 C 5.296875 -1.699219 4.066406 -2.789062 3.140625 -4.164062 C 1.972656 -5.917969 1.386719 -8.242188 1.386719 -11.140625 L 1.386719 -27.851562 Z M 9.019531 -27.851562"/></g></g></g><g fill-opacity="1" fill="#000000"><g transform="translate(124.33665, 37.449798)"><g><path d="M 11.875 -20.773438 C 14.761719 -20.773438 17.230469 -19.734375 19.292969 -17.660156 C 21.355469 -15.585938 22.386719 -13.101562 22.386719 -10.203125 C 22.386719 -7.265625 21.339844 -4.761719 19.253906 -2.695312 C 17.164062 -0.625 14.644531 0.40625 11.691406 0.40625 C 8.742188 0.40625 6.21875 -0.628906 4.121094 -2.703125 C 2.027344 -4.777344 0.980469 -7.277344 0.980469 -10.203125 C 0.980469 -13.183594 2.027344 -15.6875 4.121094 -17.722656 C 6.21875 -19.757812 8.800781 -20.773438 11.875 -20.773438 Z M 11.671875 -13.242188 C 10.855469 -13.242188 10.160156 -12.945312 9.589844 -12.355469 C 9.019531 -11.765625 8.734375 -11.039062 8.734375 -10.183594 C 8.734375 -9.339844 9.023438 -8.617188 9.601562 -8.019531 C 10.179688 -7.421875 10.871094 -7.121094 11.671875 -7.121094 C 12.488281 -7.121094 13.183594 -7.421875 13.761719 -8.019531 C 14.339844 -8.617188 14.628906 -9.339844 14.628906 -10.183594 C 14.628906 -11.039062 14.34375 -11.765625 13.773438 -12.355469 C 13.203125 -12.945312 12.5 -13.242188 11.671875 -13.242188 Z M 11.671875 -13.242188"/></g></g></g><g fill-opacity="1" fill="#000000"><g transform="translate(147.678444, 37.449798)"><g><path d="M 13.386719 -20.546875 L 13.386719 -12.386719 C 12.855469 -12.683594 12.371094 -12.835938 11.9375 -12.835938 C 10.550781 -12.835938 9.855469 -11.773438 9.855469 -9.652344 L 9.855469 0 L 2.222656 0 L 2.222656 -11.121094 C 2.222656 -14.058594 3.027344 -16.402344 4.632812 -18.152344 C 6.238281 -19.898438 8.378906 -20.773438 11.058594 -20.773438 C 11.660156 -20.773438 12.433594 -20.699219 13.386719 -20.546875 Z M 13.386719 -20.546875"/></g></g></g><g clip-path="url(#c686cc0f48)"><g fill-opacity="1" fill="#000000"><g transform="translate(161.083652, 37.449798)"><g><path d="M 4.855469 8.917969 L 4.855469 2.285156 C 5.890625 2.722656 6.796875 2.9375 7.570312 2.9375 C 10.046875 2.9375 11.652344 1.542969 12.386719 -1.246094 C 11.054688 -0.457031 9.746094 -0.0625 8.46875 -0.0625 C 6.578125 -0.0625 5.019531 -0.765625 3.796875 -2.171875 C 2.570312 -3.582031 1.957031 -5.375 1.957031 -7.550781 L 1.957031 -20.34375 L 9.589844 -20.34375 L 9.589844 -9.40625 C 9.589844 -8.195312 10.09375 -7.589844 11.101562 -7.589844 C 12.066406 -7.589844 12.550781 -8.257812 12.550781 -9.589844 L 12.550781 -20.34375 L 20.179688 -20.34375 L 20.179688 -2.183594 C 20.179688 1.203125 19.230469 3.9375 17.324219 6.019531 C 15.050781 8.496094 12.304688 9.734375 9.082031 9.734375 C 7.664062 9.734375 6.257812 9.460938 4.855469 8.917969 Z M 4.855469 8.917969"/></g></g></g></g></g></g></svg>